<?xml version="1.0" encoding="UTF-8" standalone="no"?>
<!DOCTYPE svg PUBLIC "-//W3C//DTD SVG 1.1//EN"
"http://www.w3.org/Graphics/SVG/1.1/DTD/svg11.dtd">
<svg viewBox="0 0 935 1210" version="1.1" xmlns="http://www.w3.org/2000/svg" xmlns:xlink="http://www.w3.org/1999/xlink">
<defs>
<style type="text/css"><![CDATA[
.g0_14{
fill: #000;
}
]]></style>
</defs>
<path fill-rule="evenodd" d="M757.9 368.3h67.3v-.9H757.9v.9Z" class="g0_14"/>
<path fill-rule="evenodd" d="M110 395.2h37.6v-1H110v1Z" class="g0_14"/>
<path fill-rule="evenodd" d="M156.2 501.9H267.5v-1H156.2v1Z" class="g0_14"/>
<path fill-rule="evenodd" d="M104.5 543.5h.8V531h-.8v12.5Z" class="g0_14"/>
<path fill-rule="evenodd" d="M104.5 531.7h.8V531h-.8v.7Z" class="g0_14"/>
<path fill-rule="evenodd" d="M105.3 531.7h56.3V531H105.3v.7Z" class="g0_14"/>
<path fill-rule="evenodd" d="M161.5 543.5h.8V531.7h-.8v11.8Z" class="g0_14"/>
<path fill-rule="evenodd" d="M161.5 531.7h.8V531h-.8v.7Z" class="g0_14"/>
<path fill-rule="evenodd" d="M162.3 531.7H393.7V531H162.3v.7Z" class="g0_14"/>
<path fill-rule="evenodd" d="M393.7 543.5h.7V531.7h-.7v11.8Z" class="g0_14"/>
<path fill-rule="evenodd" d="M393.7 531.7h.7V531h-.7v.7Z" class="g0_14"/>
<path fill-rule="evenodd" d="M394.4 531.7H765.2V531H394.4v.7Z" class="g0_14"/>
<path fill-rule="evenodd" d="M765.2 543.5h.7V531h-.7v12.5Z" class="g0_14"/>
<path fill-rule="evenodd" d="M765.2 531.7h.7V531h-.7v.7Z" class="g0_14"/>
<path fill-rule="evenodd" d="M104.5 589.3h.8V543.5h-.8v45.8Z" class="g0_14"/>
<path fill-rule="evenodd" d="M161.5 589.3h.8V543.5h-.8v45.8Z" class="g0_14"/>
<path fill-rule="evenodd" d="M393.7 589.3h.7V543.5h-.7v45.8Z" class="g0_14"/>
<path fill-rule="evenodd" d="M765.2 589.3h.7V543.5h-.7v45.8Z" class="g0_14"/>
<path fill-rule="evenodd" d="M104.5 601.8h.8V589.3h-.8v12.5Z" class="g0_14"/>
<path fill-rule="evenodd" d="M161.5 601.8h.8V589.3h-.8v12.5Z" class="g0_14"/>
<path fill-rule="evenodd" d="M162.3 590H393.7v-.7H162.3v.7Z" class="g0_14"/>
<path fill-rule="evenodd" d="M393.7 601.8h.7V589.3h-.7v12.5Z" class="g0_14"/>
<path fill-rule="evenodd" d="M394.4 590H765.2v-.7H394.4v.7Z" class="g0_14"/>
<path fill-rule="evenodd" d="M765.2 601.8h.7V589.3h-.7v12.5Z" class="g0_14"/>
<path fill-rule="evenodd" d="M104.5 754h.8V601.8h-.8V754Z" class="g0_14"/>
<path fill-rule="evenodd" d="M161.5 754h.8V601.8h-.8V754Z" class="g0_14"/>
<path fill-rule="evenodd" d="M393.7 754h.7V601.8h-.7V754Z" class="g0_14"/>
<path fill-rule="evenodd" d="M765.2 754h.7V601.8h-.7V754Z" class="g0_14"/>
<path fill-rule="evenodd" d="M104.5 766.4h.8V754h-.8v12.4Z" class="g0_14"/>
<path fill-rule="evenodd" d="M161.5 766.4h.8V754h-.8v12.4Z" class="g0_14"/>
<path fill-rule="evenodd" d="M162.3 754.7H393.7V754H162.3v.7Z" class="g0_14"/>
<path fill-rule="evenodd" d="M393.7 766.4h.7V754h-.7v12.4Z" class="g0_14"/>
<path fill-rule="evenodd" d="M394.4 754.7H765.2V754H394.4v.7Z" class="g0_14"/>
<path fill-rule="evenodd" d="M765.2 766.4h.7V754h-.7v12.4Z" class="g0_14"/>
<path fill-rule="evenodd" d="M104.5 865.6h.8V766.4h-.8v99.2Z" class="g0_14"/>
<path fill-rule="evenodd" d="M161.5 865.6h.8V766.4h-.8v99.2Z" class="g0_14"/>
<path fill-rule="evenodd" d="M161.5 866.4h.8v-.8h-.8v.8Z" class="g0_14"/>
<path fill-rule="evenodd" d="M161.5 866.4h.8v-.8h-.8v.8Z" class="g0_14"/>
<path fill-rule="evenodd" d="M162.3 866.4H393.7v-.8H162.3v.8Z" class="g0_14"/>
<path fill-rule="evenodd" d="M393.7 865.6h.7V766.4h-.7v99.2Z" class="g0_14"/>
<path fill-rule="evenodd" d="M393.7 866.4h.7v-.8h-.7v.8Z" class="g0_14"/>
<path fill-rule="evenodd" d="M394.4 866.4H765.2v-.8H394.4v.8Z" class="g0_14"/>
<path fill-rule="evenodd" d="M765.2 865.6h.7V766.4h-.7v99.2Z" class="g0_14"/>
<path fill-rule="evenodd" d="M765.2 866.4h.7v-.8h-.7v.8Z" class="g0_14"/>
<path fill-rule="evenodd" d="M765.2 866.4h.7v-.8h-.7v.8Z" class="g0_14"/>
<path d="M125.9 841.5l1 .7c-.2 .2 -.3 .4 -.4 .8c-.2 .3 -.2 .7 -.2 1c0 .8 .2 1.4 .8 1.9c.5 .4 1.3 .6 2.2 .6c.9 0 1.6 -.2 2.1 -.6c.5 -.5 .8 -1.1 .8 -2c0 -.6 -.3 -1.2 -.8 -1.9l1.2 -.5c.5 .7 .7 1.7 .7 2.8c0 1.1 -.3 2 -1.1 2.7c-.7 .7 -1.7 1 -2.9 1c-1.3 0 -2.3 -.3 -3.1 -1.1c-.7 -.7 -1.1 -1.7 -1.1 -3c0 -.4 .1 -.9 .2 -1.3c.2 -.5 .4 -.9 .6 -1.1Zm3.3 -1c-1.2 0 -2.2 -.3 -3 -1c-.7 -.6 -1.1 -1.5 -1.1 -2.6c0 -1.1 .4 -2 1.1 -2.6c.7 -.7 1.7 -1 3 -1c1.3 0 2.3 .3 3 1c.8 .6 1.1 1.5 1.1 2.6c0 1.1 -.3 2 -1.1 2.7c-.7 .6 -1.7 .9 -3 .9Zm0 -1.5c2 0 3 -.7 3 -2.1c0 -.7 -.3 -1.2 -.8 -1.5c-.5 -.4 -1.3 -.6 -2.2 -.6c-2 0 -3 .7 -3 2.1c0 .7 .3 1.2 .8 1.5c.6 .4 1.3 .6 2.2 .6Zm4 -12.2h-4.6c-.9 0 -1.5 .2 -1.8 .4c-.4 .3 -.5 .7 -.5 1.3c0 .3 .1 .7 .3 1c.2 .4 .4 .6 .7 .8h5.9v1.4h-8v-.9l1.1 -.5c-.8 -.4 -1.2 -1.2 -1.2 -2.2c0 -1.8 1 -2.7 3.2 -2.7h4.9Zm-.5 -2.8l-1.3 -.5c.5 -.8 .8 -1.4 .8 -1.9c0 -.9 -.4 -1.3 -1.1 -1.3c-.6 0 -1 .4 -1.4 1.3c-.3 .6 -.5 1.1 -.7 1.3c-.1 .2 -.3 .4 -.5 .6c-.2 .1 -.4 .3 -.6 .3c-.2 .1 -.5 .2 -.7 .2c-.7 0 -1.2 -.3 -1.6 -.8c-.3 -.4 -.5 -1 -.5 -1.8c0 -.6 .2 -1.3 .5 -2.2l1.3 .4c-.4 .6 -.6 1.1 -.6 1.7c0 .3 .1 .6 .2 .8c.2 .3 .4 .4 .6 .4c.5 0 .9 -.3 1.2 -.9l.4 -1c.3 -.6 .6 -1.1 1 -1.4c.4 -.2 .8 -.4 1.4 -.4c.7 0 1.2 .3 1.6 .8c.4 .5 .6 1.2 .6 2.1c0 .8 -.2 1.6 -.6 2.3Zm-3.3 -13.4v5.7c.9 0 1.6 -.3 2.1 -.8c.4 -.4 .7 -1 .7 -1.7c0 -.8 -.3 -1.5 -.8 -2l1.1 -.6c.2 .2 .4 .5 .5 1c.2 .5 .3 1.2 .3 1.9c0 1 -.3 1.8 -1 2.5c-.7 .8 -1.7 1.2 -3 1.2c-1.3 0 -2.4 -.4 -3.1 -1.2c-.8 -.7 -1.1 -1.6 -1.1 -2.6c0 -1.1 .3 -2 .9 -2.6c.7 -.6 1.5 -1 2.5 -1c.3 0 .6 .1 .9 .2Zm-3.1 3.4c0 .6 .2 1.1 .6 1.6c.4 .4 .9 .6 1.4 .7v-4.5c-.5 0 -1 .2 -1.4 .6c-.4 .4 -.6 .9 -.6 1.6Zm.3 -9.3c-.2 .3 -.3 .6 -.3 .9c0 .5 .2 .9 .7 1.3c.4 .4 1 .6 1.6 .6h4.6v1.4h-8v-1.4h1.3c-.9 -.5 -1.4 -1.3 -1.4 -2.3c0 -.3 0 -.6 .1 -1.1Zm6.7 -4.4v.3l-8.1 3.5v-1.6l5.6 -2.1l-5.6 -2.1v-1.5Zm-1 -9.2c.7 .6 1 1.5 1 2.6c0 .7 -.2 1.2 -.6 1.6c-.5 .5 -1.1 .7 -1.7 .7c-.8 0 -1.5 -.3 -2.1 -1c-.5 -.7 -.8 -1.6 -.8 -2.7c0 -.3 .1 -.7 .2 -1c-1.3 0 -1.9 .5 -1.9 1.7c0 .9 .2 1.6 .7 2l-1.2 .6c-.2 -.3 -.4 -.6 -.6 -1.1c-.1 -.5 -.2 -.9 -.2 -1.4c0 -1.1 .2 -1.9 .8 -2.5c.5 -.5 1.3 -.7 2.5 -.7h2.8c.7 0 1.2 -.3 1.4 -.7h.7c0 .6 0 1 -.2 1.3c-.2 .3 -.4 .5 -.8 .6Zm-3 .2c-.1 .4 -.2 .7 -.2 .9c0 .7 .2 1.3 .6 1.7c.4 .5 .8 .7 1.3 .7c.8 0 1.2 -.5 1.2 -1.4c0 -.8 -.3 -1.4 -1 -1.9Zm-3.4 -9.7l1 .7c-.2 .1 -.3 .4 -.4 .7c-.2 .4 -.2 .7 -.2 1.1c0 .8 .2 1.4 .8 1.8c.5 .5 1.3 .7 2.2 .7c.9 0 1.6 -.2 2.1 -.7c.5 -.5 .8 -1.1 .8 -1.9c0 -.6 -.3 -1.3 -.8 -1.9l1.2 -.6c.5 .8 .7 1.7 .7 2.8c0 1.1 -.3 2 -1.1 2.7c-.7 .7 -1.7 1.1 -2.9 1.1c-1.3 0 -2.3 -.4 -3.1 -1.1c-.7 -.8 -1.1 -1.8 -1.1 -3c0 -.4 .1 -.9 .2 -1.4c.2 -.5 .4 -.8 .6 -1Zm10.7 3.9l-.8 .2c0 -.4 0 -.7 -.2 -.9c-.1 -.3 -.3 -.4 -.5 -.4c-.4 0 -.6 .2 -.6 .6h-.9c0 -.5 .2 -.8 .5 -1.1c.2 -.3 .6 -.4 1 -.4c.4 0 .8 .2 1.1 .5c.2 .4 .4 .9 .4 1.5Zm-4.3 -10c.7 .6 1 1.5 1 2.6c0 .7 -.2 1.2 -.6 1.7c-.5 .4 -1.1 .7 -1.7 .7c-.8 0 -1.5 -.4 -2.1 -1.1c-.5 -.7 -.8 -1.6 -.8 -2.7c0 -.3 .1 -.6 .2 -1c-1.3 0 -1.9 .6 -1.9 1.7c0 .9 .2 1.6 .7 2l-1.2 .6c-.2 -.2 -.4 -.6 -.6 -1.1c-.1 -.5 -.2 -.9 -.2 -1.3c0 -1.2 .2 -2 .8 -2.5c.5 -.6 1.3 -.8 2.5 -.8h2.8c.7 0 1.2 -.2 1.4 -.6h.7c0 .5 0 .9 -.2 1.2c-.2 .3 -.4 .5 -.8 .6Zm-3 .2c-.1 .4 -.2 .7 -.2 .9c0 .7 .2 1.3 .6 1.8c.4 .4 .8 .6 1.3 .6c.8 0 1.2 -.4 1.2 -1.4c0 -.7 -.3 -1.4 -1 -1.9Zm-7.2 -.8c1 .2 1.5 .7 1.5 1.4c0 .3 -.1 .6 -.2 1c-.2 .4 -.3 .6 -.3 .8c0 .3 .2 .6 .5 .8v.7c-.4 -.1 -.7 -.3 -1 -.5c-.3 -.3 -.5 -.5 -.5 -.9c0 -.4 .1 -.8 .3 -1.1c.2 -.3 .3 -.6 .3 -.8c0 -.4 -.2 -.7 -.6 -.8Zm7.1 -2.4c-1.2 0 -2.2 -.3 -3 -1c-.7 -.7 -1.1 -1.5 -1.1 -2.6c0 -1.1 .4 -2 1.1 -2.7c.7 -.6 1.7 -.9 3 -.9c1.3 0 2.3 .3 3 1c.8 .6 1.1 1.5 1.1 2.6c0 1.1 -.3 2 -1.1 2.6c-.7 .7 -1.7 1 -3 1Zm0 -1.5c2 0 3 -.7 3 -2.1c0 -.7 -.3 -1.2 -.8 -1.6c-.5 -.3 -1.3 -.5 -2.2 -.5c-2 0 -3 .7 -3 2.1c0 .6 .3 1.1 .8 1.5c.6 .4 1.3 .6 2.2 .6Z" class="g0_14"/>
<path d="M130.7 696.2l-5.5 5.4v2.1L130 699v9.5h1.5V699l4.7 4.7v-2.1Z" class="g0_14"/>
<path d="M126.2 628.7l1 .7c-.2 .2 -.3 .4 -.4 .8c-.2 .4 -.2 .7 -.2 1.1c0 .7 .2 1.4 .8 1.8c.5 .5 1.2 .7 2.2 .7c.9 0 1.6 -.2 2.1 -.7c.5 -.5 .7 -1.1 .7 -1.9c0 -.7 -.2 -1.3 -.7 -2l1.2 -.5c.5 .8 .7 1.7 .7 2.8c0 1.1 -.3 2 -1.1 2.7c-.7 .7 -1.7 1.1 -2.9 1.1c-1.3 0 -2.3 -.4 -3.1 -1.1c-.7 -.8 -1.1 -1.8 -1.1 -3.1c0 -.4 .1 -.8 .2 -1.3c.2 -.5 .4 -.8 .6 -1.1Zm3.3 -1c-1.2 0 -2.2 -.3 -3 -.9c-.8 -.7 -1.1 -1.6 -1.1 -2.7c0 -1.1 .3 -2 1.1 -2.6c.7 -.6 1.7 -.9 3 -.9c1.3 0 2.3 .3 3 .9c.8 .7 1.1 1.5 1.1 2.6c0 1.2 -.3 2.1 -1.1 2.7c-.7 .6 -1.8 .9 -3 .9Zm0 -1.4c2 0 3 -.8 3 -2.2c0 -.6 -.3 -1.1 -.8 -1.5c-.6 -.4 -1.3 -.6 -2.2 -.6c-2 0 -3 .7 -3 2.1c0 .7 .3 1.2 .8 1.6c.5 .4 1.3 .6 2.2 .6Zm4 -12.2h-4.7c-.8 0 -1.4 .1 -1.7 .4c-.4 .2 -.5 .6 -.5 1.2c0 .4 .1 .7 .3 1c.1 .4 .4 .7 .7 .9h5.9V619h-8v-1l1 -.4c-.7 -.5 -1.1 -1.3 -1.1 -2.3c0 -1.8 1 -2.6 3.2 -2.6h4.9Zm-.5 -2.9l-1.3 -.5c.5 -.7 .7 -1.4 .7 -1.9c0 -.8 -.3 -1.3 -1.1 -1.3c-.5 0 -.9 .5 -1.3 1.3c-.3 .6 -.5 1.1 -.7 1.3c-.1 .2 -.3 .4 -.5 .6c-.2 .2 -.4 .3 -.6 .4c-.3 .1 -.5 .1 -.7 .1c-.7 0 -1.2 -.2 -1.6 -.7c-.3 -.5 -.5 -1.1 -.5 -1.9c0 -.6 .2 -1.3 .5 -2.2l1.3 .4c-.4 .6 -.6 1.1 -.6 1.7c0 .3 0 .6 .2 .9c.2 .2 .4 .3 .6 .3c.5 0 .9 -.3 1.2 -.9l.4 -1c.3 -.6 .6 -1 1 -1.3c.3 -.3 .8 -.4 1.3 -.4c.8 0 1.3 .2 1.7 .7c.4 .5 .6 1.2 .6 2.1c0 .8 -.2 1.6 -.6 2.3Zm-3.4 -13.4v5.7c1 0 1.7 -.2 2.2 -.7c.4 -.5 .6 -1.1 .6 -1.8c0 -.8 -.2 -1.5 -.7 -2l1.1 -.6c.2 .2 .4 .6 .5 1c.2 .6 .3 1.2 .3 1.9c0 1 -.3 1.9 -1 2.6c-.7 .7 -1.7 1.1 -3 1.1c-1.3 0 -2.4 -.4 -3.2 -1.2c-.7 -.7 -1 -1.5 -1 -2.5c0 -1.1 .3 -2 .9 -2.7c.6 -.6 1.5 -.9 2.5 -.9c.3 0 .6 0 .8 .1Zm-3 3.4c0 .7 .2 1.2 .6 1.6c.4 .4 .8 .6 1.4 .7v-4.4c-.6 0 -1 .2 -1.4 .5c-.4 .4 -.6 .9 -.6 1.6Zm.3 -9.3c-.2 .3 -.3 .6 -.3 1c0 .4 .2 .9 .7 1.3c.4 .3 1 .5 1.6 .5h4.6v1.4h-8v-1.4h1.3c-1 -.5 -1.4 -1.3 -1.4 -2.3c0 -.2 0 -.6 .1 -1.1Zm6.7 -4.4v.4l-8.1 3.4v-1.5l5.6 -2.2l-5.6 -2.1V584Zm-1 -9.1c.7 .5 1 1.4 1 2.6c0 .6 -.2 1.1 -.7 1.6c-.4 .4 -1 .7 -1.6 .7c-.9 0 -1.5 -.4 -2.1 -1.1c-.5 -.7 -.8 -1.6 -.8 -2.7c0 -.3 0 -.6 .2 -1c-1.3 0 -2 .6 -2 1.7c0 .9 .3 1.6 .7 2.1l-1.1 .5c-.2 -.2 -.4 -.6 -.6 -1.1c-.1 -.4 -.2 -.9 -.2 -1.3c0 -1.2 .2 -2 .8 -2.5c.5 -.6 1.3 -.8 2.5 -.8h2.8c.7 0 1.2 -.2 1.4 -.6h.7c0 .5 -.1 1 -.2 1.3c-.2 .2 -.5 .4 -.8 .6Zm-3 .1c-.1 .5 -.2 .8 -.2 .9c0 .7 .2 1.3 .6 1.8c.3 .4 .8 .7 1.3 .7c.8 0 1.2 -.5 1.2 -1.5c0 -.7 -.3 -1.4 -1 -1.9Zm-3.4 -9.7l1 .7c-.2 .1 -.3 .4 -.4 .7c-.2 .4 -.2 .8 -.2 1.1c0 .8 .2 1.4 .8 1.8c.5 .5 1.2 .7 2.2 .7c.9 0 1.6 -.2 2.1 -.7c.5 -.4 .7 -1.1 .7 -1.9c0 -.6 -.2 -1.2 -.7 -1.9l1.2 -.6c.5 .8 .7 1.7 .7 2.9c0 1 -.3 1.9 -1.1 2.6c-.7 .8 -1.7 1.1 -2.9 1.1c-1.3 0 -2.3 -.4 -3.1 -1.1c-.7 -.7 -1.1 -1.7 -1.1 -3c0 -.4 .1 -.9 .2 -1.4c.2 -.4 .4 -.8 .6 -1Zm10.7 4l-.8 .1c0 -.3 0 -.7 -.2 -.9c-.1 -.3 -.3 -.4 -.5 -.4c-.4 0 -.6 .2 -.6 .7h-.9c0 -.5 .2 -.9 .4 -1.2c.3 -.2 .7 -.4 1.1 -.4c.4 0 .8 .2 1.1 .6c.2 .3 .4 .8 .4 1.5Zm-4.3 -10c.7 .6 1 1.4 1 2.6c0 .6 -.2 1.1 -.7 1.6c-.4 .5 -1 .7 -1.6 .7c-.9 0 -1.5 -.4 -2.1 -1.1c-.5 -.7 -.8 -1.6 -.8 -2.7c0 -.3 0 -.6 .2 -1c-1.3 0 -2 .6 -2 1.7c0 .9 .3 1.6 .7 2.1l-1.1 .6c-.2 -.3 -.4 -.7 -.6 -1.1c-.1 -.5 -.2 -1 -.2 -1.4c0 -1.2 .2 -2 .8 -2.5c.5 -.5 1.3 -.8 2.5 -.8h2.8c.7 0 1.2 -.2 1.4 -.6h.7c0 .6 -.1 1 -.2 1.3c-.2 .3 -.5 .5 -.8 .6Zm-3 .1c-.1 .5 -.2 .8 -.2 1c0 .7 .2 1.2 .6 1.7c.3 .4 .8 .7 1.3 .7c.8 0 1.2 -.5 1.2 -1.5c0 -.7 -.3 -1.3 -1 -1.9Zm-7.2 -.8c1 .3 1.5 .7 1.5 1.4c0 .3 -.1 .7 -.3 1c-.1 .4 -.2 .7 -.2 .8c0 .4 .1 .7 .5 .8v.7c-.4 -.1 -.7 -.2 -1 -.5c-.4 -.2 -.5 -.5 -.5 -.9c0 -.4 .1 -.7 .3 -1.1c.2 -.3 .3 -.6 .3 -.7c0 -.5 -.2 -.7 -.6 -.9Zm7.1 -2.4c-1.2 0 -2.2 -.3 -3 -1c-.8 -.6 -1.1 -1.5 -1.1 -2.6c0 -1.1 .3 -2 1.1 -2.6c.7 -.7 1.7 -1 3 -1c1.3 0 2.3 .4 3 1c.8 .6 1.1 1.5 1.1 2.6c0 1.2 -.3 2 -1.1 2.7c-.7 .6 -1.8 .9 -3 .9Zm0 -1.5c2 0 3 -.7 3 -2.1c0 -.6 -.3 -1.2 -.8 -1.5c-.6 -.4 -1.3 -.6 -2.2 -.6c-2 0 -3 .7 -3 2.1c0 .7 .3 1.2 .8 1.6c.5 .4 1.3 .5 2.2 .5Z" class="g0_14"/>
</svg>