<?xml version="1.0" encoding="UTF-8" standalone="no"?>
<!DOCTYPE svg PUBLIC "-//W3C//DTD SVG 1.1//EN"
"http://www.w3.org/Graphics/SVG/1.1/DTD/svg11.dtd">
<svg viewBox="0 0 935 1210" version="1.1" xmlns="http://www.w3.org/2000/svg" xmlns:xlink="http://www.w3.org/1999/xlink">
<defs>
<style type="text/css"><![CDATA[
.g0_15{
fill: #000;
}
]]></style>
</defs>
<path fill-rule="evenodd" d="M110 110.9h.6V110H110v.9Z" class="g0_15"/>
<path fill-rule="evenodd" d="M110 110.7h.6V110H110v.7Z" class="g0_15"/>
<path fill-rule="evenodd" d="M110.6 110.7H295.5V110H110.6v.7Z" class="g0_15"/>
<path fill-rule="evenodd" d="M295.5 110.9h.7v-.3h-.7v.3Z" class="g0_15"/>
<path fill-rule="evenodd" d="M295.5 110.7h.7V110h-.7v.7Z" class="g0_15"/>
<path fill-rule="evenodd" d="M296.2 110.7H824.7V110H296.2v.7Z" class="g0_15"/>
<path fill-rule="evenodd" d="M824.7 110.9h.6V110h-.6v.9Z" class="g0_15"/>
<path fill-rule="evenodd" d="M824.7 110.7h.6V110h-.6v.7Z" class="g0_15"/>
<path fill-rule="evenodd" d="M110 194.7h.6V110.9H110v83.8Z" class="g0_15"/>
<path fill-rule="evenodd" d="M295.5 194.7h.7V110.9h-.7v83.8Z" class="g0_15"/>
<path fill-rule="evenodd" d="M824.7 194.7h.6V110.9h-.6v83.8Z" class="g0_15"/>
<path fill-rule="evenodd" d="M110 195.6h.6v-.9H110v.9Z" class="g0_15"/>
<path fill-rule="evenodd" d="M110.6 195.3H295.5v-.6H110.6v.6Z" class="g0_15"/>
<path fill-rule="evenodd" d="M295.5 195.3h.7v-.6h-.7v.6Z" class="g0_15"/>
<path fill-rule="evenodd" d="M296.2 195.3H824.7v-.6H296.2v.6Z" class="g0_15"/>
<path fill-rule="evenodd" d="M824.7 195.6h.6v-.9h-.6v.9Z" class="g0_15"/>
<path fill-rule="evenodd" d="M110 293.4h.6V195.6H110v97.8Z" class="g0_15"/>
<path fill-rule="evenodd" d="M824.7 293.4h.6V195.6h-.6v97.8Z" class="g0_15"/>
<path fill-rule="evenodd" d="M110 294.3h.6v-.9H110v.9Z" class="g0_15"/>
<path fill-rule="evenodd" d="M110.6 294H295.5v-.6H110.6v.6Z" class="g0_15"/>
<path fill-rule="evenodd" d="M295.5 294.3h.7V294h-.7v.3Z" class="g0_15"/>
<path fill-rule="evenodd" d="M295.5 294h.7v-.6h-.7v.6Z" class="g0_15"/>
<path fill-rule="evenodd" d="M296.2 294H824.7v-.6H296.2v.6Z" class="g0_15"/>
<path fill-rule="evenodd" d="M824.7 294.3h.6v-.9h-.6v.9Z" class="g0_15"/>
<path fill-rule="evenodd" d="M110 414.5h.6V294.3H110V414.5Z" class="g0_15"/>
<path fill-rule="evenodd" d="M295.5 414.5h.7V294.3h-.7V414.5Z" class="g0_15"/>
<path fill-rule="evenodd" d="M824.7 414.5h.6V294.3h-.6V414.5Z" class="g0_15"/>
<path fill-rule="evenodd" d="M110 415.4h.6v-1H110v1Z" class="g0_15"/>
<path fill-rule="evenodd" d="M110.6 415.1H295.5v-.6H110.6v.6Z" class="g0_15"/>
<path fill-rule="evenodd" d="M295.5 415.4h.7v-1h-.7v1Z" class="g0_15"/>
<path fill-rule="evenodd" d="M296.2 415.1H824.7v-.6H296.2v.6Z" class="g0_15"/>
<path fill-rule="evenodd" d="M824.7 415.4h.6v-1h-.6v1Z" class="g0_15"/>
<path fill-rule="evenodd" d="M110 456.6h.6V415.4H110v41.2Z" class="g0_15"/>
<path fill-rule="evenodd" d="M295.5 456.6h.7V415.4h-.7v41.2Z" class="g0_15"/>
<path fill-rule="evenodd" d="M824.7 456.6h.6V415.4h-.6v41.2Z" class="g0_15"/>
<path fill-rule="evenodd" d="M110 457.5h.6v-.9H110v.9Z" class="g0_15"/>
<path fill-rule="evenodd" d="M110.6 457.2H295.5v-.6H110.6v.6Z" class="g0_15"/>
<path fill-rule="evenodd" d="M295.5 457.5h.7v-.9h-.7v.9Z" class="g0_15"/>
<path fill-rule="evenodd" d="M296.2 457.2H824.7v-.6H296.2v.6Z" class="g0_15"/>
<path fill-rule="evenodd" d="M824.7 457.5h.6v-.9h-.6v.9Z" class="g0_15"/>
<path fill-rule="evenodd" d="M110 577.3h.6V457.5H110V577.3Z" class="g0_15"/>
<path fill-rule="evenodd" d="M110 578h.6v-.7H110v.7Z" class="g0_15"/>
<path fill-rule="evenodd" d="M110 578h.6v-.7H110v.7Z" class="g0_15"/>
<path fill-rule="evenodd" d="M110.6 578H295.5v-.7H110.6v.7Z" class="g0_15"/>
<path fill-rule="evenodd" d="M295.5 577.3h.7V457.5h-.7V577.3Z" class="g0_15"/>
<path fill-rule="evenodd" d="M295.5 578h.7v-.7h-.7v.7Z" class="g0_15"/>
<path fill-rule="evenodd" d="M296.2 578H824.7v-.7H296.2v.7Z" class="g0_15"/>
<path fill-rule="evenodd" d="M824.7 577.3h.6V457.5h-.6V577.3Z" class="g0_15"/>
<path fill-rule="evenodd" d="M824.7 578h.6v-.7h-.6v.7Z" class="g0_15"/>
<path fill-rule="evenodd" d="M824.7 578h.6v-.7h-.6v.7Z" class="g0_15"/>
</svg>