<?xml version="1.0" encoding="UTF-8" standalone="no"?>
<!DOCTYPE svg PUBLIC "-//W3C//DTD SVG 1.1//EN"
"http://www.w3.org/Graphics/SVG/1.1/DTD/svg11.dtd">
<svg viewBox="0 0 1286 909" version="1.1" xmlns="http://www.w3.org/2000/svg" xmlns:xlink="http://www.w3.org/1999/xlink">
<defs>
<clipPath id="c0_1"><path d="M643.1 909.4V0h643.1V909.4Z"/></clipPath>
<clipPath id="c1_1"><path d="M1035.4 544.1c.3 -3.6 .7 -7.2 1.1 -10.9c-4.5 -.2 -8.5 -.8 -11.9 -1.7c3.7 5.9 8.7 11.9 10.8 12.6ZM798.5 407.6Zm239 119.1c3.1 -18.7 6.3 -37.3 9.4 -55.9c-19.7 -11.3 -20 -38.9 -19.7 -67c.1 0 .3 0 .4 0c10.3 0 15.6 -5.6 16.6 -13c1.1 -7.4 -3.8 -15.1 -16.5 -15.1c-1.1 0 -2.3 .1 -3.5 .2c1.3 -8.5 3.8 -18.7 3.3 -24.3c-20.4 14.7 -40.4 29 -58.2 44.9c-1.1 1.3 -2.1 2.5 -3.1 3.7c1.1 7.6 4.9 15.7 8.5 23.3c9.1 15.3 15.3 31.1 23.7 47.7c4.1 8.1 11.9 15.1 16.4 23c-3.1 4.4 -7.1 7.2 -6.7 9.7c3 3.1 6 6.3 9.1 9.4c2.3 1.8 .7 3.6 -1.5 5.5c6.3 4.8 13.6 7.5 21.8 7.9Zm78.4 -200.9c1.3 0 2.5 -1.7 2.3 -4.7c-1.8 0 -3.1 -.6 -4.2 -1.4c0 1.6 0 3.2 -.1 4.9c.6 .8 1.3 1.2 2 1.2Zm-95.1 289.7c-4 0 -7.8 -.4 -11.3 -1.7c-12.6 -6.6 -11.9 -24.8 -3.4 -31.5c2.4 -1.8 5.3 -3.6 8.8 -3.6c3.4 0 7.3 1.8 11.6 7.1c1.1 -5.4 2.3 -10.8 3.4 -16.2c-7.6 -5.3 -12.3 -12.7 -18.5 -19c-4.7 -4.5 -9.5 -9 -14.2 -13.4c-.5 .2 -1 .5 -1.5 .8C989.9 533.4 981 523.9 980.4 523.9v.1c-5.2 3.2 -10.2 6.3 -14.7 8c-1.1 .1 -2.2 .2 -3.3 .3c-2.7 -3.7 -5.4 -7.4 -8 -11.1c-4.5 -8.7 -9.3 -17.5 -12.2 -25.5c-.2 -.1 -19.1 -39.5 -21.1 -45.4C917 442.7 907.2 406.5 905.9 401.2c-2.3 -5.8 .2 -8 .2 -8h.1c.3 0 .1 -2.9 .5 -4.5c15.2 -37 34.7 -57.3 61 -89.5c-9 -10.3 -17.5 -20.5 -25.5 -30.8c-6.4 -8.3 -15.1 -19.9 -21.9 -29.9c-6.8 -.1 -14.1 -.2 -20.8 -.3c-2.1 .6 -4.1 1.1 -6.1 1.7c-.5 -.3 -1 -.6 -1.4 -.8c-1.7 1.2 -3.4 2.4 -5 3.6c-.8 1.2 -1.7 2.4 -2.5 3.6c-4.3 8.9 -8.5 17.9 -12.8 26.9c-6.2 17.9 -12.5 35.8 -18.8 53.7c-1.1 2.8 -2.2 5.6 -3.3 8.3c-.6 3.5 -1.2 6.9 -1.8 10.3c0 0 -1.7 9.9 -2.2 11.9c-.4 1.9 -1.4 7.3 -1.4 8.5c0 1.2 0 5.9 -.4 6.6c-.3 .7 -.5 6.5 -.5 6.5c-4.8 -.5 -9.5 -1.6 -14.9 -3c-1.3 4.6 -2.7 9.2 -4.1 13.8c0 0 4.1 4.5 5.8 11.3c1.8 6.7 -.5 8.4 -2 14.4c1.2 4.5 2.3 8.9 3.5 13.4c1.6 2 2.4 4.4 2.5 7.2c10.3 14 22.6 27.4 35 40.7c17.9 20.1 35.7 40.2 53.5 60.3c2.9 2.4 1.1 10.5 -2.7 10.5c-.1 0 -.2 0 -.3 0c-1 -.4 -.4 -.2 -1.3 -.8c-.3 -.3 -.7 -.7 -1.3 -1.2c-3.1 -2.7 -18.4 -20.5 -40.1 -45.4C860.7 480.4 844.1 462.5 831.5 444.7C820.4 432.5 812.8 424.2 812.4 424.2c0 0 0 .1 0 .1c-1.4 1.1 -2.5 1.6 -3.3 1.6c-.3 0 -.6 -.1 -.9 -.3c-.7 -.8 .9 -5.2 -.3 -5.8c-.6 .8 -1.7 1.3 -2.7 1.3c-1.1 0 -2.1 -.6 -2.5 -1.9c-.3 -1.2 -.1 -3.3 -.1 -5c-1.3 1 -2.4 1.5 -3.2 1.5c-2.2 0 -2.3 -3.8 -.9 -8.1c-.1 .1 -.1 .2 -.2 .2c-.8 0 -2.7 -3.4 -2.4 -5.8c0 -1.5 -3.9 -5.3 -3.9 -5.3c-1.4 -1.9 -4.7 -5.3 -5.8 -7.7c-.7 -3.3 0 -5 1.9 -5c1.7 0 4.2 1.2 7.4 3.8c.8 1 1.4 1.5 1.8 1.5c.4 0 .6 -.5 .7 -1.3c.4 -1.4 .9 -2.7 1.4 -4.1c.8 -2.7 .5 -5.1 .2 -7.4c1 -6.1 2.4 -10.5 4.5 -11.1c-8.2 -7.3 -16.4 -11.9 -24.6 -17.5c1.1 -8.1 2.5 -15.8 4.3 -22.8c0 0 .7 -1.9 3 -7.9c.6 -1.4 .2 -3.9 .7 -5.9c2.5 -10.9 4.2 -22.9 9.1 -31.2c1.4 -2.7 1.7 -5.8 2.6 -8.7c2.9 -2.7 4.9 -7 6.2 -13c5.7 -14.1 12.3 -28.1 19.8 -42.1c5.4 -10.3 12.9 -20.5 19 -29.7c3.5 -4.9 8.2 -8 13.8 -9.6c9.4 -1.7 18.8 -3.3 28.2 -5c-6.9 -15.1 -19 -51.2 -23.9 -71.1c-3.7 -12.2 -6.1 -33 -6.9 -38.3c-1 -5.5 -1.9 -16 -2.3 -22.2C852.7 34.2 846.9 9.3 846.9 9.3c0 0 -.8 -4.4 -1.4 -9.3h206.3c-10.8 32.7 -17.4 72.9 -16 112.5c1.2 33.6 7.7 66.7 27.2 94.4c.7 2.1 1.5 3.2 2.3 3.2c1.2 0 2.5 -2 3.9 -6c1.5 -1 2.7 -1.4 3.9 -1.4c4 0 7.4 4.7 15.1 7.3c8.8 -20.8 20.4 -36 39.5 -36c10 0 22.1 4.2 36.9 13.8c20.2 17.9 20.4 36.2 9.6 54.8c-5.6 7.6 -11.1 15.2 -16.6 22.7c5.2 4.4 7.7 7.4 9.1 11.1c3.4 9.4 -1.3 14 -9.4 14c-5 0 -11.3 -1.7 -17.8 -5.2c-2.6 8.1 -7.1 13.8 -11 20.3c-3 5 -3.9 13.8 -8.5 15.8c.1 4.2 -1.3 6.2 -3.5 6.2c-.8 0 -1.8 -.3 -2.8 -.9c-1.1 19.5 -.9 39.1 -1.1 58.7c-1.4 -.2 -2.7 -.3 -4 -.3c-23.1 0 -26.5 26.2 -2.3 28.9c-1.2 2 -6.1 10.5 -8.7 20.9c-1.9 7.8 -3.8 17.3 -6.6 21.1c-7.8 14.6 -21.2 14.6 -21.2 14.6c0 0 -12.9 57.2 -12.6 57.2c.4 -1 1.7 -.5 5.4 -2.1c.8 -.3 1.4 -.4 1.9 -.4c1.9 0 1.8 2 1.6 2.8c-.3 .9 -3.3 2.2 -3.3 2.2l-8 8.5l-2.2 11.7c0 0 10.2 -1.7 12.4 -2.8c1.8 -.9 6.7 -2.3 9.6 -2.3c1.2 0 2 .2 2.3 .7c3.9 1.2 1.2 3.6 -.7 3.6c-.2 0 -.4 0 -.6 -.1c0 0 -2 .9 -3.6 .9c-1.5 0 -5.6 2.4 -5.6 2.4l-14.4 3.3l-1.4 8c0 0 8 1.4 9.7 2.3c1.7 1 6.3 -.4 12.2 1.9c5.7 2.3 -2.8 4 -6.3 4c-.2 0 -.3 0 -.4 0c-3.2 -.2 -10.1 -1.9 -10.1 -1.9c-2.4 -.1 -4.8 -.1 -7.2 -.2c-.1 1.5 -.3 2.9 -.4 4.4c2.1 1.8 4.2 3.7 6.2 5.5c2.3 2.9 1.7 3 1.1 4.1c-5.5 -2.7 -8 -4.6 -9 -4.6c-.2 0 -.3 .1 -.4 .3c-1.7 9.3 -3.5 18.6 -5.2 27.9c-1.3 3.4 -2.7 6.5 -5 6.5c-.1 0 -.2 0 -.3 0c-5 .6 -10 1.2 -14.7 1.2Z"/></clipPath>
<style type="text/css"><![CDATA[
.g0_1{
fill: #EC008C;
}
.g1_1{
fill: #231F20;
}
.g2_1{
fill: #00ABCD;
}
.g3_1{
fill: #0095D9;
}
.g4_1{
fill: #0072BC;
}
.g5_1{
fill: #FECA0A;
}
.g6_1{
fill: #EE1D23;
}
.g7_1{
fill: #F7931D;
}
]]></style>
</defs>
<path fill-rule="evenodd" d="M643.1 0h643.1V909.4H643.1Z" class="g0_1"/>
<image clip-path="url(#c0_1)" x="768" y="-32" width="443" height="677" xlink:href="shade/1.png"/>
<image clip-path="url(#c1_1)" preserveAspectRatio="none" x="779" y="0" width="406" height="617" xlink:href="img/1.jpg"/>
<image preserveAspectRatio="none" x="348" y="746" width="123" height="113" xlink:href="img/2.jpg"/>
<path fill-rule="evenodd" d="M177.8 853.7l-2.1 -6.8h1.7l1.3 4.4l1.2 -4.4h1.7l1.1 4.4l1.3 -4.4h1.8l-2.2 6.8h-1.7l-1.2 -4.4l-1.1 4.4Zm10.2 0l-2.1 -6.8h1.7l1.3 4.4l1.1 -4.4h1.8l1.1 4.4l1.3 -4.4H196l-2.2 6.8h-1.7l-1.2 -4.4l-1.2 4.4Zm10.2 0L196 846.9h1.8l1.2 4.4l1.2 -4.4h1.7l1.2 4.4l1.3 -4.4h1.7l-2.2 6.8h-1.7l-1.1 -4.4l-1.2 4.4Zm8.4 0v-1.8h1.8v1.8Zm9.5 -4.8l-1.7 .3c-.1 -.3 -.2 -.6 -.4 -.8c-.3 -.2 -.5 -.2 -.9 -.2c-.4 0 -.8 .1 -1 .4c-.3 .3 -.4 .8 -.4 1.6c0 .8 .1 1.3 .4 1.7c.2 .3 .6 .5 1.1 .5c.3 0 .6 -.1 .8 -.3c.2 -.2 .4 -.6 .5 -1l1.7 .3c-.2 .8 -.5 1.4 -1 1.8c-.6 .4 -1.3 .6 -2.1 .6c-1 0 -1.8 -.3 -2.4 -.9c-.6 -.6 -.9 -1.5 -.9 -2.6c0 -1.1 .3 -2 .9 -2.6c.6 -.6 1.4 -1 2.4 -1c.8 0 1.5 .2 2 .6c.5 .3 .8 .9 1 1.6Zm1.3 -2H219v.9c.6 -.7 1.3 -1.1 2.1 -1.1c.5 0 .8 .1 1.1 .3c.4 .2 .6 .5 .8 .8c.3 -.3 .7 -.6 1 -.8c.3 -.2 .7 -.3 1.1 -.3c.5 0 .9 .1 1.3 .3c.3 .2 .6 .5 .7 .9c.2 .3 .2 .8 .2 1.4v4.4h-1.8v-3.9c0 -.7 0 -1.1 -.2 -1.3c-.1 -.3 -.4 -.4 -.7 -.4c-.3 0 -.5 .1 -.7 .2c-.3 .2 -.4 .4 -.5 .7c-.1 .3 -.2 .8 -.2 1.4v3.3h-1.8V850c0 -.7 0 -1.1 0 -1.3c-.1 -.2 -.2 -.4 -.3 -.4c-.2 -.1 -.4 -.2 -.6 -.2c-.3 0 -.5 .1 -.7 .2c-.3 .2 -.4 .4 -.5 .7c-.1 .3 -.2 .7 -.2 1.4v3.3h-1.7Zm11.5 4.3v-1.8h3.5v1.8Zm5.9 -2.2l-1.6 -.3c.2 -.7 .5 -1.2 .9 -1.5c.5 -.3 1.1 -.5 2 -.5c.8 0 1.4 .1 1.8 .3c.4 .2 .7 .5 .8 .7c.2 .3 .3 .9 .3 1.7l-.1 2c0 .6 .1 1.1 .1 1.4c.1 .2 .2 .6 .4 .9h-1.8c-.1 -.1 -.1 -.3 -.2 -.6q0 -.1 -.1 -.2c-.3 .3 -.6 .6 -.9 .7c-.4 .2 -.8 .2 -1.2 .2c-.7 0 -1.2 -.2 -1.6 -.5c-.4 -.4 -.6 -.9 -.6 -1.5c0 -.4 .1 -.7 .3 -1c.1 -.3 .4 -.5 .7 -.7c.4 -.1 .8 -.3 1.5 -.4c.8 -.2 1.4 -.3 1.7 -.4v-.2c0 -.4 -.1 -.6 -.3 -.8c-.1 -.1 -.4 -.2 -.9 -.2c-.3 0 -.6 .1 -.8 .2c-.1 .1 -.3 .3 -.4 .7Zm2.4 1.4c-.2 .1 -.6 .2 -1.1 .3c-.5 .1 -.8 .2 -1 .3c-.2 .2 -.3 .4 -.3 .6c0 .3 .1 .5 .3 .7c.1 .2 .4 .3 .7 .3c.3 0 .6 -.1 .9 -.4c.2 -.1 .4 -.3 .4 -.6c.1 -.1 .1 -.4 .1 -.8Zm3.5 3.3v-9.4h1.8v9.4Zm3.6 0v-9.4h1.8v3.4c.5 -.6 1.2 -1 1.9 -1c.9 0 1.6 .3 2.1 .9c.5 .6 .8 1.5 .8 2.6c0 1.2 -.3 2.1 -.8 2.7c-.6 .6 -1.2 .9 -2 .9c-.4 0 -.8 -.1 -1.2 -.3c-.4 -.2 -.7 -.4 -1 -.8v1Zm1.8 -3.6c0 .7 .1 1.3 .3 1.6c.3 .5 .7 .7 1.2 .7c.4 0 .8 -.2 1 -.5c.3 -.3 .5 -.9 .5 -1.6c0 -.8 -.2 -1.3 -.5 -1.7c-.2 -.3 -.6 -.5 -1 -.5c-.5 0 -.8 .2 -1.1 .5c-.3 .4 -.4 .9 -.4 1.5Zm10.7 3.6v-1c-.2 .3 -.6 .6 -1 .8c-.4 .2 -.8 .3 -1.2 .3c-.5 0 -.9 -.1 -1.3 -.3c-.3 -.2 -.6 -.5 -.8 -.8c-.1 -.4 -.2 -.9 -.2 -1.5v-4.3h1.8V850c0 1 0 1.5 .1 1.8c.1 .2 .2 .3 .4 .5c.1 .1 .4 .2 .6 .2c.3 0 .6 -.1 .8 -.3c.3 -.2 .5 -.4 .5 -.6c.1 -.3 .2 -.9 .2 -1.8v-2.9h1.8v6.8Zm2.7 -6.8h1v-.5c0 -.6 .1 -1 .2 -1.3c.1 -.3 .4 -.5 .7 -.7c.3 -.2 .7 -.2 1.2 -.2c.5 0 1 0 1.5 .2l-.2 1.2c-.3 0 -.6 -.1 -.8 -.1c-.3 0 -.5 .1 -.6 .2c-.1 .1 -.2 .4 -.2 .7v.5h1.4v1.4h-1.4v5.4h-1.8v-5.4h-1Zm9.1 4.6l1.8 .3c-.2 .7 -.6 1.2 -1.1 1.5c-.5 .4 -1.1 .5 -1.9 .5c-1.1 0 -2 -.4 -2.6 -1.1c-.4 -.6 -.6 -1.4 -.6 -2.4c0 -1.1 .3 -2 .8 -2.6c.6 -.6 1.4 -1 2.3 -1c1 0 1.8 .4 2.4 1c.5 .7 .8 1.7 .8 3.1H266c0 .5 .2 .9 .4 1.2c.3 .3 .7 .5 1.1 .5c.2 0 .5 -.1 .7 -.2c.2 -.2 .3 -.4 .4 -.8Zm.1 -1.8c0 -.5 -.1 -.9 -.4 -1.2c-.2 -.3 -.6 -.4 -.9 -.4c-.4 0 -.7 .2 -1 .4c-.3 .3 -.4 .7 -.4 1.2ZM272 846v-1.7h1.7V846Zm0 7.7v-6.8h1.7v6.8Zm5.3 0h-1.8v-6.8h1.7v1c.3 -.5 .5 -.8 .7 -.9c.3 -.2 .5 -.3 .8 -.3c.4 0 .8 .2 1.2 .4l-.6 1.5c-.3 -.2 -.5 -.2 -.8 -.2c-.3 0 -.5 0 -.6 .2c-.2 .1 -.4 .3 -.5 .7c-.1 .4 -.1 1.1 -.1 2.3ZM282 849l-1.6 -.3c.2 -.7 .5 -1.2 .9 -1.5c.5 -.3 1.1 -.5 2 -.5c.8 0 1.4 .1 1.8 .3c.4 .2 .7 .5 .8 .7c.2 .3 .3 .9 .3 1.7l-.1 2c0 .6 .1 1.1 .1 1.4c.1 .2 .2 .6 .4 .9h-1.8c-.1 -.1 -.1 -.3 -.2 -.6q0 -.1 -.1 -.2c-.3 .3 -.6 .6 -.9 .7c-.4 .2 -.8 .2 -1.2 .2c-.6 0 -1.2 -.2 -1.6 -.5c-.4 -.4 -.6 -.9 -.6 -1.5c0 -.4 .1 -.7 .3 -1c.2 -.3 .4 -.5 .7 -.7c.4 -.1 .8 -.3 1.5 -.4c.8 -.2 1.4 -.3 1.7 -.4v-.2c0 -.4 -.1 -.6 -.2 -.8c-.2 -.1 -.5 -.2 -1 -.2c-.3 0 -.6 .1 -.8 .2c-.1 .1 -.3 .3 -.4 .7Zm2.4 1.4c-.2 .1 -.6 .2 -1.1 .3c-.5 .1 -.8 .2 -1 .3c-.2 .2 -.3 .4 -.3 .6c0 .3 .1 .5 .3 .7c.2 .2 .4 .3 .7 .3c.3 0 .6 -.1 .9 -.4c.2 -.1 .4 -.3 .4 -.6c.1 -.1 .1 -.4 .1 -.8Zm3.5 3.3v-1.8h1.8v1.8Zm3.6 -6.8h1.7v1c.2 -.4 .5 -.6 .9 -.8c.3 -.3 .8 -.4 1.2 -.4c.8 0 1.5 .4 2 1c.6 .6 .8 1.4 .8 2.5c0 1.2 -.2 2.1 -.8 2.7c-.6 .6 -1.2 .9 -2 .9c-.4 0 -.7 0 -1 -.2c-.3 -.1 -.7 -.4 -1 -.8v3.5h-1.8Zm1.8 3.3c0 .7 .1 1.3 .4 1.7c.3 .3 .7 .5 1.2 .5c.4 0 .7 -.2 1 -.5c.3 -.3 .4 -.9 .4 -1.6c0 -.8 -.1 -1.3 -.4 -1.6c-.3 -.4 -.7 -.5 -1.1 -.5c-.4 0 -.8 .1 -1.1 .5c-.3 .3 -.4 .8 -.4 1.5Zm9.4 -3.3v1.4h-1.3v2.8c0 .5 0 .8 .1 .9c0 .1 0 .2 .1 .3c.1 0 .2 0 .3 0c.2 0 .4 0 .8 -.1l.1 1.4c-.4 .1 -.9 .2 -1.4 .2c-.3 0 -.6 0 -.9 -.1c-.2 -.1 -.4 -.3 -.6 -.5c-.1 -.1 -.2 -.4 -.2 -.7c0 -.2 -.1 -.6 -.1 -1.2v-3h-.8v-1.4h.8v-1.4l1.8 -1v2.4Z" class="g1_1"/>
<path d="M181 812l-1.9 4.9H183Zm-2.7 -3.1c.4 .1 .8 .1 1.2 .1c.4 .1 .8 .1 1.3 .1c.3 0 .7 0 1.2 -.1c.4 0 .8 0 1.3 -.1c.1 .4 .2 .7 .3 1c.1 .2 .2 .5 .3 .7l4.9 10.5c.2 .5 .5 .9 .7 1.1c.2 .2 .5 .3 .9 .3v.5c-.5 0 -1 -.1 -1.6 -.1c-.5 0 -1 0 -1.6 0c-.5 0 -1 0 -1.6 0c-.6 0 -1.2 .1 -1.9 .1v-.5c.5 0 .8 -.1 1 -.2c.1 -.1 .2 -.3 .2 -.5c0 -.1 0 -.2 0 -.2c0 -.1 0 -.2 -.1 -.3l-1.1 -2.7h-5.4l-1 2.4c0 .1 -.1 .3 -.1 .4c0 .1 0 .2 0 .3c0 .3 .1 .4 .2 .6c.2 .1 .5 .2 .9 .2v.5c-.5 0 -1 -.1 -1.5 -.1c-.4 0 -.9 0 -1.3 0c-.5 0 -.9 0 -1.4 0c-.4 0 -.8 .1 -1.2 .1v-.5c.6 -.1 1.2 -.6 1.6 -1.6c.1 -.1 .1 -.2 .1 -.3l4.5 -10c.1 -.1 .1 -.3 .1 -.3c.1 -.1 .1 -.2 .1 -.3c0 -.2 -.1 -.3 -.3 -.4c-.1 -.1 -.4 -.1 -.7 -.1ZM196 807c-.1 .3 -.2 .6 -.2 .9c-.1 .2 -.1 .4 -.2 .7l-1.8 9.5c-.3 1.1 -.4 1.8 -.4 2.1c-.1 .4 -.1 .6 -.1 .8c0 .2 0 .4 .1 .5c.1 0 .2 .1 .4 .1c.1 0 .3 0 .4 -.1c.2 0 .4 -.1 .7 -.3l.3 .4c-.8 .5 -1.6 .9 -2.3 1.2c-.7 .3 -1.3 .4 -1.7 .4c-.5 0 -.9 -.1 -1.1 -.3c-.3 -.3 -.4 -.7 -.4 -1.1c0 -.4 .2 -1.5 .5 -3.3l.1 -.4l1.7 -9.2c-.2 0 -.5 .1 -.8 .1c-.3 .1 -.6 .1 -.9 .2l.3 -.6c.8 -.1 1.7 -.3 2.6 -.6c.9 -.2 1.8 -.6 2.8 -1Zm8 8.6c0 -.3 -.1 -.6 -.3 -.8c-.2 -.2 -.4 -.3 -.7 -.3c-.3 0 -.6 .2 -.9 .4c-.3 .3 -.7 .8 -1.1 1.4c-.6 .9 -1.1 1.8 -1.4 2.6c-.3 .7 -.5 1.3 -.5 1.8c0 .4 .1 .7 .3 .9c.3 .2 .6 .3 1 .3c.5 0 .8 -.1 1.1 -.3c.3 -.3 .6 -.8 1 -1.6c.5 -.9 .8 -1.7 1.1 -2.5c.2 -.8 .4 -1.5 .4 -1.9Zm.7 -8.6l-.2 1.6q-.1 0 -.2 0c-.6 0 -1 -.1 -1.3 -.1c-1 0 -1.7 1.1 -2.2 3.3c-.1 .4 -.1 .6 -.2 .8l-1 4.8c.8 -1.7 1.6 -2.9 2.4 -3.7c.8 -.8 1.7 -1.2 2.7 -1.2c.9 0 1.6 .2 2.1 .8c.5 .5 .7 1.3 .7 2.2c0 1 -.3 1.9 -.8 2.9c-.6 1 -1.3 1.9 -2.3 2.7c-.9 .7 -1.8 1.2 -2.7 1.6c-.9 .4 -1.8 .5 -2.7 .5c-.5 0 -.9 0 -1.3 -.2c-.3 -.1 -.6 -.3 -.9 -.6c-.2 .1 -.5 .2 -.7 .3c-.3 .1 -.6 .3 -.9 .4l1.9 -9.9v-.1c.5 -2.3 1.6 -3.9 3.4 -4.9c.7 -.3 1.4 -.6 2 -.8c.7 -.2 1.5 -.3 2.2 -.4Zm8.4 5.4c-.1 .4 -.2 .8 -.3 1.1c-.1 .3 -.2 .7 -.2 1l-.9 4.5c0 .4 -.1 .6 -.1 .8c0 .2 0 .3 0 .4c0 .3 0 .5 .1 .6c.1 .1 .3 .2 .4 .2c.5 0 1.2 -.7 2 -2.2c.8 -1.6 1.5 -3.4 2.2 -5.7l3.4 -.4l-1.3 6.8c0 .2 -.1 .4 -.1 .6c0 .2 0 .4 0 .7c0 .2 0 .4 .1 .5c.1 .1 .3 .2 .5 .2c.2 0 .3 0 .5 -.1c.2 -.1 .5 -.2 .9 -.5l.3 .4c-.8 .6 -1.5 1.1 -2.2 1.4c-.7 .4 -1.3 .5 -1.8 .5c-.5 0 -1 -.2 -1.3 -.6c-.3 -.3 -.4 -.9 -.4 -1.5c0 -.4 0 -.8 .1 -1.4c.1 -.5 .3 -1.2 .5 -2.1c-1 2.1 -1.8 3.5 -2.6 4.4c-.8 .8 -1.6 1.2 -2.5 1.2c-.7 0 -1.3 -.2 -1.7 -.6c-.4 -.5 -.6 -1.1 -.6 -1.8c0 -.2 0 -.4 .1 -.6c0 -.2 0 -.5 .1 -.9l1 -5.3c-.3 .1 -.7 .2 -1 .2c-.3 .1 -.7 .2 -1 .2l.1 -.5c.6 -.1 1.4 -.2 2.2 -.5c.8 -.2 2 -.5 3.5 -1Zm15.3 -5.1c-.1 .5 -.2 .8 -.3 1.1c-.1 .3 -.1 .5 -.2 .8c-.3 -.1 -.6 -.1 -.9 -.1c-.2 0 -.4 0 -.6 0c-.6 0 -1.1 0 -1.4 .1c-.3 .1 -.4 .3 -.4 .5c0 .3 .1 .7 .4 1.3c.4 .6 .5 1.1 .5 1.5v.3H228l-.2 1.1h-2.4l-1.1 5.6c-.3 1.9 -.6 3.3 -.9 4.5c-.3 1.1 -.6 2 -.9 2.9l-1.8 .1c0 -.5 -.1 -1.1 -.1 -1.6c-.1 -.6 -.1 -1.2 -.1 -1.8c0 -.8 .1 -1.5 .1 -2.3c.1 -.7 .2 -1.5 .4 -2.2l1 -5.2h-1.6l.2 -1c.8 0 1.3 0 1.5 -.2c.2 -.1 .2 -.3 .2 -.7c0 -.1 0 -.4 0 -.7c-.1 -.3 -.1 -.5 -.1 -.7c0 -1 .5 -1.8 1.4 -2.4c.9 -.6 2.1 -.9 3.4 -.9c.3 0 .7 0 1.2 0q.1 0 .2 0Zm1.8 11.8c0 0 0 .1 -.1 .1c0 .1 0 .2 0 .3c0 .7 .2 1.2 .6 1.6c.4 .4 .9 .6 1.6 .6c.5 0 1.2 -.2 1.8 -.5c.7 -.4 1.4 -.9 2.1 -1.6l.6 .3c-.9 1.1 -1.9 1.9 -3 2.5c-1 .5 -2.1 .8 -3.1 .8c-1.2 0 -2.2 -.3 -3 -1c-.8 -.8 -1.2 -1.7 -1.2 -2.8c0 -.9 .3 -1.9 .9 -2.8c.5 -.9 1.3 -1.7 2.4 -2.3c.9 -.6 1.8 -1.1 2.7 -1.4c.9 -.3 1.8 -.5 2.6 -.5c.8 0 1.4 .2 1.9 .5c.4 .4 .7 .9 .7 1.4c0 1 -.7 2 -2.1 2.8c-1.3 .9 -3.1 1.5 -5.4 2Zm.1 -.8c1.1 -.3 2.1 -.7 2.9 -1.4c.8 -.6 1.2 -1.3 1.2 -1.9c0 -.3 -.1 -.5 -.4 -.7c-.3 -.2 -.7 -.3 -1.1 -.3c-.3 0 -.5 .1 -.7 .2c-.2 .2 -.5 .5 -.8 1.2c-.3 .4 -.5 .8 -.6 1.3c-.2 .5 -.4 1 -.5 1.6ZM243 812.1c-.1 .3 -.2 .8 -.3 1.3c0 .1 0 .2 -.1 .2l-.9 4.5c-.1 .2 -.1 .4 -.2 .6c-.2 1.2 -.3 1.9 -.3 2.2c0 .3 0 .4 .1 .5c.1 .1 .2 .2 .4 .2c.1 0 .3 0 .4 -.1c.2 0 .5 -.1 .8 -.3l.2 .4c-.8 .5 -1.5 .9 -2.3 1.2c-.7 .3 -1.3 .4 -1.7 .4c-.5 0 -.9 -.1 -1.1 -.3c-.3 -.3 -.4 -.6 -.4 -1.1c0 -.3 .1 -.7 .2 -1.3c.1 -.7 .2 -1.5 .4 -2.4l.9 -4.2c-.3 .1 -.6 .1 -.9 .2c-.2 .1 -.5 .1 -.8 .1l.2 -.5c.8 -.1 1.6 -.3 2.6 -.6c.9 -.3 1.8 -.6 2.8 -1Zm-1.2 -4.2c.6 0 1 .2 1.3 .5c.3 .3 .4 .7 .4 1.2c0 .5 -.2 1 -.6 1.4c-.4 .4 -.9 .6 -1.5 .6c-.4 0 -.9 -.2 -1.2 -.5c-.3 -.3 -.5 -.7 -.5 -1.1c0 -.6 .2 -1.1 .7 -1.5c.4 -.4 .9 -.6 1.4 -.6Zm7.3 4.2l-1.5 5.6c1.1 -2.1 2 -3.5 2.6 -4.1c.7 -.7 1.5 -1 2.4 -1c.2 0 .5 0 1 .1q.1 0 .2 0l-1 2.9c-.3 -.1 -.5 -.2 -.7 -.2c-.2 0 -.4 0 -.6 0c-1 0 -1.9 .6 -2.7 1.8c-.8 1.2 -1.5 3.1 -2.2 5.6l-3.4 .3l1.9 -9.2c-.3 .1 -.6 .1 -.8 .2c-.3 .1 -.6 .1 -.9 .1l.2 -.5c.8 -.1 1.7 -.3 2.6 -.6c.9 -.3 1.9 -.6 2.9 -1Zm11.1 2q-.1 0 -.2 0c-.5 -.1 -.8 -.1 -.9 -.1c-.5 0 -.9 .1 -1.2 .3c-.3 .1 -.6 .5 -.8 1c-.5 .9 -.9 1.8 -1.1 2.7c-.3 .9 -.4 1.7 -.4 2.4c0 .3 0 .6 .1 .7c.1 .2 .3 .3 .5 .3c.5 0 1.2 -.7 2 -2c.7 -1.4 1.4 -3.1 2 -5.3Zm3.6 -1.7c-.5 2 -.9 3.9 -1.1 5.5c-.3 1.7 -.5 2.6 -.5 3c0 .2 .1 .4 .2 .5c.1 .1 .3 .2 .4 .2c.1 0 .2 0 .4 -.1c.2 -.1 .4 -.2 .8 -.4l.2 .4c-.8 .6 -1.5 1 -2.1 1.3c-.6 .3 -1.1 .4 -1.5 .4c-.5 0 -.9 -.2 -1.2 -.5c-.3 -.3 -.4 -.8 -.4 -1.3c0 -.3 0 -.7 .1 -1.1c0 -.5 .1 -1 .2 -1.6c-.6 1.4 -1.3 2.5 -2.1 3.2c-.8 .8 -1.7 1.2 -2.6 1.2c-.7 0 -1.4 -.3 -1.9 -.8c-.4 -.6 -.7 -1.2 -.7 -2.1c0 -1 .3 -2 .8 -3c.6 -1 1.3 -1.9 2.2 -2.5c.9 -.7 1.8 -1.2 2.8 -1.6c1 -.3 1.9 -.5 2.7 -.5c.3 0 .6 0 .9 .1c.3 0 .7 .1 1 .2c.2 -.1 .5 -.1 .7 -.2c.2 -.1 .4 -.2 .7 -.3Z" class="g1_1"/>
<path d="M235.3 828c.1 0 .3 0 .4 0c.2 0 .4 .1 .5 .1c.2 0 .3 -.1 .5 -.1c.1 0 .3 0 .6 0l1.6 3.4l1.4 -3.4c.2 0 .4 0 .6 0c.1 0 .3 .1 .4 .1c.1 0 .3 -.1 .4 -.1c.2 0 .3 0 .5 0v.2c-.1 0 -.2 0 -.3 .1c0 0 -.1 .1 -.1 .2c0 0 0 .1 0 .1c0 0 0 .1 0 .1l.4 3.5c0 .2 0 .4 .1 .4c0 .1 .2 .1 .4 .1v.2c-.3 0 -.4 0 -.6 0c-.2 0 -.4 0 -.6 0c-.2 0 -.4 0 -.6 0c-.2 0 -.4 0 -.6 0v-.2c.2 0 .4 0 .5 -.1c0 -.1 .1 -.2 .1 -.4v-.1c0 0 -.1 0 -.1 -.1l-.2 -2.8l-1.6 3.7h-.7l-1.8 -3.8l-.2 3c0 0 0 .1 0 .1c0 0 0 .1 0 .1c0 .2 0 .3 .1 .3c.1 .1 .2 .1 .4 .1v.2c-.2 0 -.4 0 -.5 0c-.2 0 -.3 0 -.4 0c-.2 0 -.3 0 -.5 0c-.2 0 -.3 0 -.5 0v-.2c.4 0 .5 -.2 .6 -.6l.3 -3.4v-.1c0 -.2 -.1 -.3 -.1 -.3c-.1 -.1 -.2 -.1 -.4 -.1Zm10 0c.2 0 .4 0 .6 .1c.2 0 .4 0 .6 0c.1 0 .3 0 .5 0c.2 -.1 .4 -.1 .6 -.1v.2c-.2 0 -.3 0 -.4 .1c0 .1 -.1 .2 -.1 .3v2.3c0 .6 .1 1 .3 1.2c.2 .2 .5 .2 .9 .2c.5 0 .8 0 1 -.2c.1 -.2 .2 -.6 .2 -1.2v-2.3c0 -.1 0 -.2 -.1 -.3c-.1 -.1 -.2 -.1 -.4 -.1V828c.2 0 .4 0 .6 .1c.2 0 .4 0 .6 0c.2 0 .4 0 .6 0c.1 -.1 .3 -.1 .5 -.1v.2c-.1 0 -.3 0 -.3 .1c-.1 .1 -.1 .2 -.1 .3v2.3c0 .8 -.2 1.3 -.6 1.7c-.4 .3 -1 .4 -2 .4c-.9 0 -1.5 -.1 -1.9 -.4c-.4 -.4 -.6 -.9 -.6 -1.7v-2.3c0 -.1 0 -.2 -.1 -.3c-.1 -.1 -.2 -.1 -.4 -.1Zm8.9 4.9v-.2c.1 0 .3 0 .3 -.1c.1 -.1 .1 -.2 .1 -.5v-3.4c0 -.2 0 -.3 -.1 -.4c0 -.1 -.2 -.1 -.3 -.1V828c.1 0 .3 0 .5 0c.1 0 .3 .1 .5 .1c.1 0 .3 -.1 .5 -.1c.2 0 .3 0 .5 0l2.7 3.4v-2.7c0 -.2 0 -.3 -.1 -.4c-.1 -.1 -.2 -.1 -.5 -.1V828c.2 0 .4 0 .5 0c.2 0 .3 .1 .5 .1c.2 0 .3 -.1 .5 -.1c.1 0 .3 0 .4 0v.2c-.1 0 -.3 0 -.3 .1c-.1 .1 -.1 .2 -.1 .4v4.2h-1.1l-3.2 -4v3.2c0 .3 0 .4 .1 .5c.1 .1 .2 .1 .5 .1v.2c-.2 0 -.4 0 -.5 0c-.2 0 -.3 0 -.4 0c-.2 0 -.4 0 -.5 0c-.2 0 -.4 0 -.5 0ZM263 828c.2 0 .4 0 .6 .1c.1 0 .3 0 .5 0c.2 0 .4 0 .6 0c.2 -.1 .4 -.1 .6 -.1v.2c-.2 0 -.3 0 -.4 .1c-.1 .1 -.1 .2 -.1 .3v3.7c0 .1 0 .3 .1 .3c.1 .1 .2 .1 .4 .1v.2c-.3 0 -.5 0 -.7 0c-.2 0 -.3 0 -.5 0c-.1 0 -.3 0 -.5 0c-.2 0 -.4 0 -.6 0v-.2c.2 0 .3 0 .4 -.1c0 0 .1 -.2 .1 -.3v-3.7c0 -.1 -.1 -.2 -.1 -.3c-.1 -.1 -.2 -.1 -.4 -.1Zm10.1 .2c0 0 -.1 .1 -.1 .1c0 .1 0 .2 0 .3c0 .2 0 .3 .1 .5c0 .1 0 .3 0 .5h-.2c-.1 -.3 -.3 -.6 -.5 -.8c-.3 -.1 -.6 -.2 -1 -.2c-.6 0 -1 .1 -1.4 .4c-.3 .3 -.5 .8 -.5 1.3c0 .5 .2 1 .6 1.4c.4 .3 .9 .5 1.6 .5c.3 0 .5 0 .8 -.1c.3 -.1 .6 -.2 .9 -.4l-.1 .8c-.3 .2 -.6 .3 -1 .4c-.3 .1 -.7 .1 -1.1 .1c-.3 0 -.7 0 -1 -.1c-.4 -.1 -.7 -.3 -1 -.5c-.3 -.2 -.6 -.5 -.8 -.8c-.2 -.4 -.3 -.7 -.3 -1.1c0 -.8 .3 -1.4 1 -1.9c.6 -.5 1.4 -.7 2.4 -.7c.3 0 .5 0 .8 .1c.3 0 .5 .1 .8 .2Zm3 -.2c.2 0 .4 0 .6 .1c.2 0 .3 0 .5 0c.2 0 .4 0 .6 0c.2 -.1 .4 -.1 .6 -.1v.2c-.2 0 -.3 0 -.4 .1c-.1 .1 -.1 .2 -.1 .3v3.7c0 .1 0 .3 .1 .3c.1 .1 .2 .1 .4 .1v.2c-.3 0 -.5 0 -.7 0c-.1 0 -.3 0 -.5 0c-.1 0 -.3 0 -.5 0c-.2 0 -.4 0 -.6 0v-.2c.2 0 .3 0 .4 -.1c0 0 .1 -.2 .1 -.3v-3.7c0 -.1 -.1 -.2 -.1 -.3c-.1 -.1 -.2 -.1 -.4 -.1Zm.7 -.5h-.5l1.2 -1.1c.2 -.1 .3 -.2 .4 -.3c.1 0 .2 0 .3 0c.2 0 .3 0 .4 .1c.1 0 .1 .1 .1 .2c0 .1 0 .2 -.1 .3c0 .1 -.2 .1 -.3 .2Zm4.4 5.4v-.2c.2 0 .3 0 .4 -.1c0 0 .1 -.2 .1 -.3v-3.7c0 -.1 -.1 -.2 -.1 -.3c-.1 0 -.2 -.1 -.4 -.1V828h2.4c.9 0 1.6 .1 2.1 .4c.4 .2 .7 .6 .7 1.1c0 .5 -.2 .8 -.6 1.1c-.4 .3 -.9 .4 -1.5 .4c-.3 0 -.6 0 -.8 -.1c-.2 0 -.4 -.1 -.4 -.2c0 0 .1 0 .1 0q0 -.1 0 -.1q.1 0 .2 .1c.1 0 .2 0 .3 0c.4 0 .7 -.1 .9 -.3c.3 -.2 .4 -.5 .4 -.8c0 -.3 -.1 -.5 -.4 -.7c-.2 -.2 -.7 -.2 -1.2 -.2H283v3.6c0 .2 0 .3 .1 .3c.1 .1 .2 .1 .4 .1v.2c-.3 0 -.5 0 -.7 0c-.2 0 -.3 0 -.5 0c-.1 0 -.3 0 -.5 0c-.2 0 -.4 0 -.6 0Zm7.7 -4.9c.2 0 .4 0 .6 .1c.2 0 .4 0 .6 0c.2 0 .3 0 .5 0c.2 -.1 .4 -.1 .6 -.1v.2c-.2 0 -.3 0 -.4 .1c0 .1 -.1 .2 -.1 .3v3.7c0 .1 .1 .3 .1 .3c.1 .1 .2 .1 .4 .1v.2c-.2 0 -.4 0 -.6 0c-.2 0 -.4 0 -.5 0c-.2 0 -.4 0 -.5 0c-.2 0 -.4 0 -.7 0v-.2c.2 0 .3 0 .4 -.1c.1 0 .1 -.2 .1 -.3v-3.7c0 -.1 0 -.2 -.1 -.3c-.1 -.1 -.2 -.1 -.4 -.1Zm8.1 .6c-.5 0 -.8 .1 -1.1 .4c-.3 .2 -.4 .6 -.4 1.1c0 .7 .1 1.2 .5 1.6c.3 .4 .7 .7 1.3 .7c.4 0 .8 -.2 1.1 -.5c.2 -.3 .4 -.6 .4 -1.1c0 -.7 -.2 -1.2 -.5 -1.6c-.3 -.4 -.8 -.6 -1.3 -.6Zm-2.9 1.8c0 -.8 .3 -1.4 .8 -1.8c.6 -.5 1.4 -.7 2.3 -.7c.3 0 .7 0 1 .1c.3 .1 .7 .3 .9 .5c.4 .2 .6 .5 .8 .9c.2 .4 .3 .7 .3 1.1c0 .8 -.3 1.4 -.9 1.8c-.6 .5 -1.3 .7 -2.2 .7c-.4 0 -.7 0 -1.1 -.1c-.3 -.1 -.6 -.3 -.9 -.5c-.3 -.2 -.6 -.5 -.8 -.9c-.1 -.3 -.2 -.7 -.2 -1.1Z" class="g1_1"/>
<path fill-rule="evenodd" d="M256.1 794.9c-4.6 1.7 -11.2 4.9 -15.9 6.6c-4.7 1.6 -7 2.2 -3.9 -2.2c.4 -.4 .7 -.9 1.1 -1.3c4.1 .8 15.3 -3.1 18.7 -3.1Z" class="g2_1"/>
<path fill-rule="evenodd" d="M275.6 795.8c.5 3.3 .6 6.8 .7 9.9c0 10.4 -1.4 11.6 -6.2 2.1c-2.1 -4.2 -3.4 -9 -5.7 -12.6c3.3 -.5 7.3 .8 11.2 .6Z" class="g3_1"/>
<path fill-rule="evenodd" d="M274 786.8c.3 .8 .7 6.6 .9 7.5c-11.4 -4.4 -19.6 -3 -33.2 -.3c2.4 -1.9 5.6 -3.5 7.7 -5.8c10.4 -.8 17.7 -2.3 24.6 -1.4Z" class="g4_1"/>
<path fill-rule="evenodd" d="M273.3 775c6 -.2 15.7 2.3 21.8 4.4c6.6 2.3 6.3 2.6 .7 4.2c-.7 .2 -1.5 .4 -2.3 .6c-13.1 -2.1 -24 -3 -43 2.7c.5 -.7 1.5 -3 1.9 -3.8c-.9 -.5 -3.7 -4.1 -4.7 -4.9c10.2 -1.7 23.8 -.1 41.8 2.7c-6.1 -2.6 -11.4 -4.5 -16.2 -5.9Z" class="g5_1"/>
<path fill-rule="evenodd" d="M273.7 762.1c-.3 .9 -1 2.9 -1.2 3.8c-3.2 -.4 -6.4 -.9 -10.1 -.7c.5 -.9 1.6 -2.8 2.2 -3.7c2.6 0 5.6 .2 9.1 .6Z" class="g6_1"/>
<path fill-rule="evenodd" d="M275.2 753.7c0 3 -.7 5.7 -1.5 8.4c-3 -1.1 -5.6 -2 -7.8 -2.5c1.8 -2.7 3.8 -5.2 5.4 -7.1c2.1 -2.4 3.8 -3.5 3.9 1.2Z" class="g6_1"/>
<path fill-rule="evenodd" d="M240.4 770c-.8 -.9 -1.5 -1.8 -2.2 -2.7c-5 -5.9 -5.1 -6.7 2.9 -3.2c2.2 1 4.2 2.2 6.2 3.4c-1.9 .6 -4.8 1.7 -6.9 2.5Z" class="g6_1"/>
<path fill-rule="evenodd" d="M271.9 770.3c0 1.4 0 2.9 .4 4.4c-14.7 -1.5 -17.9 -.3 -26.9 1.1c-1.6 -1.8 -3.3 -3.8 -5 -5.7q0 -.1 0 -.1c.1 0 .2 0 .3 0c2.9 -.4 6.4 -1 8.8 -1.2c2.9 1.7 5.9 3.1 9.8 3.5c.2 -1.1 .6 -2.2 1.2 -3.5c4.3 .3 8 .9 11.4 1.5Z" class="g7_1"/>
</svg>