<?xml version="1.0" encoding="UTF-8" standalone="no"?>
<!DOCTYPE svg PUBLIC "-//W3C//DTD SVG 1.1//EN"
"http://www.w3.org/Graphics/SVG/1.1/DTD/svg11.dtd">
<svg viewBox="0 0 1286 909" version="1.1" xmlns="http://www.w3.org/2000/svg" xmlns:xlink="http://www.w3.org/1999/xlink">
<defs>
<style type="text/css"><![CDATA[
.g0_10{
fill: #FFF;
}
.g1_10{
fill: #231F20;
}
.g2_10{
fill: #F4EFBC;
}
]]></style>
</defs>
<image preserveAspectRatio="none" x="201" y="219" width="484" height="713" xlink:href="img/1.jpg"/>
<path fill-rule="evenodd" d="M300.3 827.7c15.2 38.6 37.1 62.5 69.5 63.7c3.6 .3 7.1 .7 10.6 1c26.2 19.5 44.7 13.8 60.6 0c3 -3.5 7.4 -3.7 7.9 3.1c0 1.9 0 3.8 0 5.8c5.1 1.1 10.4 2.5 11.2 -1.7c.2 -3.7 .5 -7.3 .7 -10.9c2.7 0 5.4 0 8.2 0c1.9 -22.3 2.9 -44.6 1.3 -66.8c6.7 0 13.4 0 20.1 0c-.5 21.3 -1.1 42.7 -1.7 64c0 6.2 4.1 8.5 12.3 6.8c0 2.3 0 4.6 0 6.9c5.1 3.4 12 1.3 11.9 0c.5 -2.1 .9 -4.1 1.4 -6.2c14.3 6.3 29.1 8.4 43.2 4.9c15.5 -3.6 29.2 -12.2 36.1 -26.7c2.1 -3.4 -.7 -4.4 -4.9 -.6c-10.2 8.9 -31.6 16.7 -47.2 10.1c2.9 -2.2 5.8 -4.4 8.7 -6.6c1.8 -1 .1 -3.1 -.9 -2.3c-3.7 -15.1 -7.3 -30.3 -11 -45.5L582 802l113.6 23.2l-2.8 118.1l-503.1 3.9l6.8 -128.8Z" class="g0_10"/>
<path fill-rule="evenodd" d="M-10.7 -10.7H643.1v119H-10.7Z" class="g1_10"/>
<path fill-rule="evenodd" d="M1297 -10.7H643.1v119H1297Z" class="g1_10"/>
<path fill-rule="evenodd" d="M1297 920.3H643.1v-812H1297Z" class="g2_10"/>
</svg>