<?xml version="1.0" encoding="UTF-8" standalone="no"?>
<!DOCTYPE svg PUBLIC "-//W3C//DTD SVG 1.1//EN"
"http://www.w3.org/Graphics/SVG/1.1/DTD/svg11.dtd">
<svg viewBox="0 0 935 1210" version="1.1" xmlns="http://www.w3.org/2000/svg" xmlns:xlink="http://www.w3.org/1999/xlink">
<defs>
<clipPath id="c0_16"><path d="M167.3 682.3V568.2H486.5V682.3Z"/></clipPath>
<clipPath id="c1_16"><path d="M167.3 845.8V724.9H514.4V845.8Z"/></clipPath>
<clipPath id="c2_16"><path d="M167.3 921.7V888.3H371.9v33.4Z"/></clipPath>
<clipPath id="c3_16"><path d="M738.3 466v-5.8h12.1V448.5H738.3v-5.9l-4 11.7l4 11.7ZM0 1210V0H935V1210Z"/></clipPath>
<style type="text/css"><![CDATA[
.g0_16{
fill: #000;
}
.g1_16{
fill: none;
stroke: #666;
stroke-width: 1.527;
stroke-miterlimit: 10;
}
]]></style>
</defs>
<path fill-rule="evenodd" d="M563.1 203.5H686.4v-.9H563.1v.9Z" class="g0_16"/>
<g clip-path="url(#c0_16)">
<image clip-path="url(#c0_16)" preserveAspectRatio="none" x="167" y="568" width="319" height="114" xlink:href="img/1.jpg"/>
</g>
<g clip-path="url(#c1_16)">
<image clip-path="url(#c1_16)" preserveAspectRatio="none" x="167" y="725" width="344" height="121" xlink:href="img/2.jpg"/>
</g>
<g clip-path="url(#c2_16)">
<image clip-path="url(#c2_16)" preserveAspectRatio="none" x="167" y="888" width="204" height="34" xlink:href="img/3.jpg"/>
</g>
<image clip-path="url(#c3_16)" preserveAspectRatio="none" x="735" y="441" width="17" height="33" xlink:href="img/4.png"/>
<image x="734" y="442" width="17" height="25" xlink:href="shade/1.png"/>
<path d="M750.4 448.5H738.3v-5.9l-4 11.7l4 11.7v-5.8h12.1Z" class="g1_16"/>
</svg>