<?xml version="1.0" encoding="UTF-8" standalone="no"?>
<!DOCTYPE svg PUBLIC "-//W3C//DTD SVG 1.1//EN"
"http://www.w3.org/Graphics/SVG/1.1/DTD/svg11.dtd">
<svg viewBox="0 0 1286 909" version="1.1" xmlns="http://www.w3.org/2000/svg" xmlns:xlink="http://www.w3.org/1999/xlink">
<defs>
<clipPath id="c0_7"><path d="M118.1 703C100.8 703 86.6 688.9 86.6 671.5V424.1c0 -17.3 14.2 -31.5 31.5 -31.5h189c17.3 0 31.5 14.2 31.5 31.5V671.5c0 17.4 -14.2 31.5 -31.5 31.5Z"/></clipPath>
<clipPath id="c1_7"><path d="M729.7 703.4V429.1c0 -20.1 16.5 -36.6 36.5 -36.6H985.3c20 0 36.5 16.5 36.5 36.6V666.9c0 20.1 -16.5 36.5 -36.5 36.5Z"/></clipPath>
<style type="text/css"><![CDATA[
.g0_7{
fill: #231F20;
}
.g1_7{
fill: #F4EFBC;
}
.g2_7{
fill: #DCE69C;
}
]]></style>
</defs>
<path fill-rule="evenodd" d="M-10.7 -10.7H643.1v119H-10.7Z" class="g0_7"/>
<path fill-rule="evenodd" d="M-10.7 920.3H643.1v-812H-10.7Z" class="g1_7"/>
<image clip-path="url(#c0_7)" preserveAspectRatio="none" x="86" y="392" width="253" height="311" xlink:href="img/1.png"/>
<path fill-rule="evenodd" d="M643.1 -10.7H1297v119H643.1Z" class="g0_7"/>
<path fill-rule="evenodd" d="M643.1 920.3H1297v-812H643.1Z" class="g2_7"/>
<image clip-path="url(#c1_7)" preserveAspectRatio="none" x="730" y="392" width="292" height="312" xlink:href="img/2.jpg"/>
</svg>