<?xml version="1.0" encoding="UTF-8" standalone="no"?>
<!DOCTYPE svg PUBLIC "-//W3C//DTD SVG 1.1//EN"
"http://www.w3.org/Graphics/SVG/1.1/DTD/svg11.dtd">
<svg viewBox="0 0 935 1210" version="1.1" xmlns="http://www.w3.org/2000/svg" xmlns:xlink="http://www.w3.org/1999/xlink">
<defs>
<style type="text/css"><![CDATA[
.g0_8{
fill: #000;
}
]]></style>
</defs>
<path fill-rule="evenodd" d="M351.2 908h.7v-.7h-.7v.7Z" class="g0_8"/>
<path fill-rule="evenodd" d="M351.2 908h.7v-.7h-.7v.7Z" class="g0_8"/>
<path fill-rule="evenodd" d="M351.9 908H519.1v-.7H351.9v.7Z" class="g0_8"/>
<path fill-rule="evenodd" d="M519.1 908h.8v-.7h-.8v.7Z" class="g0_8"/>
<path fill-rule="evenodd" d="M519.1 908h.8v-.7h-.8v.7Z" class="g0_8"/>
<path fill-rule="evenodd" d="M351.2 944.3h.7V908h-.7v36.3Z" class="g0_8"/>
<path fill-rule="evenodd" d="M519.1 944.3h.8V908h-.8v36.3Z" class="g0_8"/>
<path fill-rule="evenodd" d="M351.2 945.1h.7v-.8h-.7v.8Z" class="g0_8"/>
<path fill-rule="evenodd" d="M351.9 945.1H519.1v-.8H351.9v.8Z" class="g0_8"/>
<path fill-rule="evenodd" d="M519.1 945.1h.8v-.8h-.8v.8Z" class="g0_8"/>
<path fill-rule="evenodd" d="M351.2 981.7h.7V945.1h-.7v36.6Z" class="g0_8"/>
<path fill-rule="evenodd" d="M519.1 981.7h.8V945.1h-.8v36.6Z" class="g0_8"/>
<path fill-rule="evenodd" d="M351.2 982.5h.7v-.8h-.7v.8Z" class="g0_8"/>
<path fill-rule="evenodd" d="M351.9 982.5H519.1v-.8H351.9v.8Z" class="g0_8"/>
<path fill-rule="evenodd" d="M519.1 982.5h.8v-.8h-.8v.8Z" class="g0_8"/>
<path fill-rule="evenodd" d="M351.2 1019.3h.7V982.5h-.7v36.8Z" class="g0_8"/>
<path fill-rule="evenodd" d="M519.1 1019.3h.8V982.5h-.8v36.8Z" class="g0_8"/>
<path fill-rule="evenodd" d="M351.2 1020h.7v-.7h-.7v.7Z" class="g0_8"/>
<path fill-rule="evenodd" d="M351.9 1020H519.1v-.7H351.9v.7Z" class="g0_8"/>
<path fill-rule="evenodd" d="M519.1 1020h.8v-.7h-.8v.7Z" class="g0_8"/>
<path fill-rule="evenodd" d="M351.2 1056.3h.7V1020h-.7v36.3Z" class="g0_8"/>
<path fill-rule="evenodd" d="M519.1 1056.3h.8V1020h-.8v36.3Z" class="g0_8"/>
<path fill-rule="evenodd" d="M351.2 1057.1h.7v-.8h-.7v.8Z" class="g0_8"/>
<path fill-rule="evenodd" d="M351.9 1057.1H519.1v-.8H351.9v.8Z" class="g0_8"/>
<path fill-rule="evenodd" d="M519.1 1057.1h.8v-.8h-.8v.8Z" class="g0_8"/>
<path fill-rule="evenodd" d="M351.2 1093.7h.7v-36.6h-.7v36.6Z" class="g0_8"/>
<path fill-rule="evenodd" d="M351.2 1094.5h.7v-.8h-.7v.8Z" class="g0_8"/>
<path fill-rule="evenodd" d="M351.2 1094.5h.7v-.8h-.7v.8Z" class="g0_8"/>
<path fill-rule="evenodd" d="M351.9 1094.5H519.1v-.8H351.9v.8Z" class="g0_8"/>
<path fill-rule="evenodd" d="M519.1 1093.7h.8v-36.6h-.8v36.6Z" class="g0_8"/>
<path fill-rule="evenodd" d="M519.1 1094.5h.8v-.8h-.8v.8Z" class="g0_8"/>
<path fill-rule="evenodd" d="M519.1 1094.5h.8v-.8h-.8v.8Z" class="g0_8"/>
</svg>