<?xml version="1.0" encoding="UTF-8" standalone="no"?>
<!DOCTYPE svg PUBLIC "-//W3C//DTD SVG 1.1//EN"
"http://www.w3.org/Graphics/SVG/1.1/DTD/svg11.dtd">
<svg viewBox="0 0 935 1210" version="1.1" xmlns="http://www.w3.org/2000/svg" xmlns:xlink="http://www.w3.org/1999/xlink">
<defs>
<style type="text/css"><![CDATA[
.g0_14{
fill: #000;
}
]]></style>
</defs>
<path fill-rule="evenodd" d="M110 943.5h.6v-.9H110v.9Z" class="g0_14"/>
<path fill-rule="evenodd" d="M110 943.2h.6v-.6H110v.6Z" class="g0_14"/>
<path fill-rule="evenodd" d="M110.6 943.2H295.5v-.6H110.6v.6Z" class="g0_14"/>
<path fill-rule="evenodd" d="M295.5 943.5h.7v-.3h-.7v.3Z" class="g0_14"/>
<path fill-rule="evenodd" d="M295.5 943.2h.7v-.6h-.7v.6Z" class="g0_14"/>
<path fill-rule="evenodd" d="M296.2 943.2H824.7v-.6H296.2v.6Z" class="g0_14"/>
<path fill-rule="evenodd" d="M824.7 943.5h.6v-.9h-.6v.9Z" class="g0_14"/>
<path fill-rule="evenodd" d="M824.7 943.2h.6v-.6h-.6v.6Z" class="g0_14"/>
<path fill-rule="evenodd" d="M110 1082.5h.6v-139H110v139Z" class="g0_14"/>
<path fill-rule="evenodd" d="M110 1083.2h.6v-.7H110v.7Z" class="g0_14"/>
<path fill-rule="evenodd" d="M110 1083.2h.6v-.7H110v.7Z" class="g0_14"/>
<path fill-rule="evenodd" d="M110.6 1083.2H295.5v-.7H110.6v.7Z" class="g0_14"/>
<path fill-rule="evenodd" d="M295.5 1082.5h.7v-139h-.7v139Z" class="g0_14"/>
<path fill-rule="evenodd" d="M295.5 1083.2h.7v-.7h-.7v.7Z" class="g0_14"/>
<path fill-rule="evenodd" d="M296.2 1083.2H824.7v-.7H296.2v.7Z" class="g0_14"/>
<path fill-rule="evenodd" d="M824.7 1082.5h.6v-139h-.6v139Z" class="g0_14"/>
<path fill-rule="evenodd" d="M824.7 1083.2h.6v-.7h-.6v.7Z" class="g0_14"/>
<path fill-rule="evenodd" d="M824.7 1083.2h.6v-.7h-.6v.7Z" class="g0_14"/>
</svg>