<?xml version="1.0" encoding="UTF-8" standalone="no"?>
<!DOCTYPE svg PUBLIC "-//W3C//DTD SVG 1.1//EN"
"http://www.w3.org/Graphics/SVG/1.1/DTD/svg11.dtd">
<svg viewBox="0 0 935 1210" version="1.1" xmlns="http://www.w3.org/2000/svg" xmlns:xlink="http://www.w3.org/1999/xlink">
<defs>
<style type="text/css"><![CDATA[
.g0_9{
fill: #000;
}
]]></style>
</defs>
<path fill-rule="evenodd" d="M351.2 110.7h.7V110h-.7v.7Z" class="g0_9"/>
<path fill-rule="evenodd" d="M351.2 110.7h.7V110h-.7v.7Z" class="g0_9"/>
<path fill-rule="evenodd" d="M351.9 110.7H519.1V110H351.9v.7Z" class="g0_9"/>
<path fill-rule="evenodd" d="M519.1 110.7h.8V110h-.8v.7Z" class="g0_9"/>
<path fill-rule="evenodd" d="M519.1 110.7h.8V110h-.8v.7Z" class="g0_9"/>
<path fill-rule="evenodd" d="M351.2 147.4h.7V110.7h-.7v36.7Z" class="g0_9"/>
<path fill-rule="evenodd" d="M519.1 147.4h.8V110.7h-.8v36.7Z" class="g0_9"/>
<path fill-rule="evenodd" d="M351.2 148.2h.7v-.8h-.7v.8Z" class="g0_9"/>
<path fill-rule="evenodd" d="M351.9 148.2H519.1v-.8H351.9v.8Z" class="g0_9"/>
<path fill-rule="evenodd" d="M519.1 148.2h.8v-.8h-.8v.8Z" class="g0_9"/>
<path fill-rule="evenodd" d="M351.2 184.5h.7V148.2h-.7v36.3Z" class="g0_9"/>
<path fill-rule="evenodd" d="M519.1 184.5h.8V148.2h-.8v36.3Z" class="g0_9"/>
<path fill-rule="evenodd" d="M351.2 185.2h.7v-.7h-.7v.7Z" class="g0_9"/>
<path fill-rule="evenodd" d="M351.9 185.2H519.1v-.7H351.9v.7Z" class="g0_9"/>
<path fill-rule="evenodd" d="M519.1 185.2h.8v-.7h-.8v.7Z" class="g0_9"/>
<path fill-rule="evenodd" d="M351.2 221.9h.7V185.2h-.7v36.7Z" class="g0_9"/>
<path fill-rule="evenodd" d="M519.1 221.9h.8V185.2h-.8v36.7Z" class="g0_9"/>
<path fill-rule="evenodd" d="M351.2 222.6h.7v-.7h-.7v.7Z" class="g0_9"/>
<path fill-rule="evenodd" d="M351.9 222.6H519.1v-.7H351.9v.7Z" class="g0_9"/>
<path fill-rule="evenodd" d="M519.1 222.6h.8v-.7h-.8v.7Z" class="g0_9"/>
<path fill-rule="evenodd" d="M351.2 259.4h.7V222.6h-.7v36.8Z" class="g0_9"/>
<path fill-rule="evenodd" d="M519.1 259.4h.8V222.6h-.8v36.8Z" class="g0_9"/>
<path fill-rule="evenodd" d="M351.2 260.2h.7v-.8h-.7v.8Z" class="g0_9"/>
<path fill-rule="evenodd" d="M351.9 260.2H519.1v-.8H351.9v.8Z" class="g0_9"/>
<path fill-rule="evenodd" d="M519.1 260.2h.8v-.8h-.8v.8Z" class="g0_9"/>
<path fill-rule="evenodd" d="M351.2 296.5h.7V260.2h-.7v36.3Z" class="g0_9"/>
<path fill-rule="evenodd" d="M519.1 296.5h.8V260.2h-.8v36.3Z" class="g0_9"/>
<path fill-rule="evenodd" d="M351.2 297.2h.7v-.7h-.7v.7Z" class="g0_9"/>
<path fill-rule="evenodd" d="M351.9 297.2H519.1v-.7H351.9v.7Z" class="g0_9"/>
<path fill-rule="evenodd" d="M519.1 297.2h.8v-.7h-.8v.7Z" class="g0_9"/>
<path fill-rule="evenodd" d="M351.2 333.9h.7V297.2h-.7v36.7Z" class="g0_9"/>
<path fill-rule="evenodd" d="M351.2 334.6h.7v-.7h-.7v.7Z" class="g0_9"/>
<path fill-rule="evenodd" d="M351.2 334.6h.7v-.7h-.7v.7Z" class="g0_9"/>
<path fill-rule="evenodd" d="M351.9 334.6H519.1v-.7H351.9v.7Z" class="g0_9"/>
<path fill-rule="evenodd" d="M519.1 333.9h.8V297.2h-.8v36.7Z" class="g0_9"/>
<path fill-rule="evenodd" d="M519.1 334.6h.8v-.7h-.8v.7Z" class="g0_9"/>
<path fill-rule="evenodd" d="M519.1 334.6h.8v-.7h-.8v.7Z" class="g0_9"/>
</svg>