<?xml version="1.0" encoding="UTF-8" standalone="no"?>
<!DOCTYPE svg PUBLIC "-//W3C//DTD SVG 1.1//EN"
"http://www.w3.org/Graphics/SVG/1.1/DTD/svg11.dtd">
<svg viewBox="0 0 935 1210" version="1.1" xmlns="http://www.w3.org/2000/svg" xmlns:xlink="http://www.w3.org/1999/xlink">
<defs>
<style type="text/css"><![CDATA[
.g0_18{
fill: #000;
}
]]></style>
</defs>
<path fill-rule="evenodd" d="M110 287.9h.6V287H110v.9Z" class="g0_18"/>
<path fill-rule="evenodd" d="M110 287.6h.6V287H110v.6Z" class="g0_18"/>
<path fill-rule="evenodd" d="M110.6 287.6H336.8V287H110.6v.6Z" class="g0_18"/>
<path fill-rule="evenodd" d="M336.8 287.9h.7v-.3h-.7v.3Z" class="g0_18"/>
<path fill-rule="evenodd" d="M336.8 287.6h.7V287h-.7v.6Z" class="g0_18"/>
<path fill-rule="evenodd" d="M337.5 287.6H824.7V287H337.5v.6Z" class="g0_18"/>
<path fill-rule="evenodd" d="M824.7 287.9h.6V287h-.6v.9Z" class="g0_18"/>
<path fill-rule="evenodd" d="M824.7 287.6h.6V287h-.6v.6Z" class="g0_18"/>
<path fill-rule="evenodd" d="M110 390.6h.6V287.9H110V390.6Z" class="g0_18"/>
<path fill-rule="evenodd" d="M110 391.2h.6v-.6H110v.6Z" class="g0_18"/>
<path fill-rule="evenodd" d="M110 391.2h.6v-.6H110v.6Z" class="g0_18"/>
<path fill-rule="evenodd" d="M110.6 391.2H336.8v-.6H110.6v.6Z" class="g0_18"/>
<path fill-rule="evenodd" d="M336.8 390.6h.7V287.9h-.7V390.6Z" class="g0_18"/>
<path fill-rule="evenodd" d="M336.8 391.2h.7v-.6h-.7v.6Z" class="g0_18"/>
<path fill-rule="evenodd" d="M337.5 391.2H824.7v-.6H337.5v.6Z" class="g0_18"/>
<path fill-rule="evenodd" d="M824.7 390.6h.6V287.9h-.6V390.6Z" class="g0_18"/>
<path fill-rule="evenodd" d="M824.7 391.2h.6v-.6h-.6v.6Z" class="g0_18"/>
<path fill-rule="evenodd" d="M824.7 391.2h.6v-.6h-.6v.6Z" class="g0_18"/>
</svg>